<?xml version="1.0" encoding="UTF-8" standalone="no"?>
<!-- Created with Inkscape (http://www.inkscape.org/) -->

<svg
   version="1.1"
   id="svg1"
   width="653.26666"
   height="162.96001"
   viewBox="0 0 653.26666 162.96001"
   sodipodi:docname="Logo_Anssems-2018-FC.eps"
   xmlns:inkscape="http://www.inkscape.org/namespaces/inkscape"
   xmlns:sodipodi="http://sodipodi.sourceforge.net/DTD/sodipodi-0.dtd"
   xmlns="http://www.w3.org/2000/svg"
   xmlns:svg="http://www.w3.org/2000/svg">
  <defs
     id="defs1" />
  <sodipodi:namedview
     id="namedview1"
     pagecolor="#ffffff"
     bordercolor="#000000"
     borderopacity="0.25"
     inkscape:showpageshadow="2"
     inkscape:pageopacity="0.0"
     inkscape:pagecheckerboard="0"
     inkscape:deskcolor="#d1d1d1">
    <inkscape:page
       x="0"
       y="0"
       inkscape:label="1"
       id="page1"
       width="653.26666"
       height="162.96001"
       margin="0"
       bleed="0" />
  </sodipodi:namedview>
  <g
     id="g1"
     inkscape:groupmode="layer"
     inkscape:label="1">
    <g
       id="group-R5">
      <path
         id="path2"
         d="m 2339.28,446.926 c 0,-91.699 -41.2,-137.528 -123.58,-137.528 H 1819.99 V 481.84 h 348.86 v 39.844 h -221.28 c -91.03,0 -136.54,43.867 -136.54,131.57 v 103.652 c 0,91.028 45.18,136.555 135.56,136.555 h 378.75 V 726.996 h -342.87 v -44.824 h 233.23 c 82.38,0 123.58,-41.875 123.58,-125.606 v -109.64"
         style="fill:#ed1c24;fill-opacity:1;fill-rule:nonzero;stroke:none"
         transform="matrix(0.13333333,0,0,-0.13333333,0,162.96)" />
      <path
         id="path3"
         d="m 2919.83,446.926 c 0,-91.699 -41.22,-137.528 -123.61,-137.528 h -395.7 V 481.84 h 348.85 v 39.844 H 2528.1 c -91.05,0 -136.55,43.867 -136.55,131.57 v 103.652 c 0,91.028 45.18,136.555 135.56,136.555 h 378.76 V 726.996 h -342.88 v -44.824 h 233.23 c 82.39,0 123.61,-41.875 123.61,-125.606 v -109.64"
         style="fill:#ed1c24;fill-opacity:1;fill-rule:nonzero;stroke:none"
         transform="matrix(0.13333333,0,0,-0.13333333,0,162.96)" />
      <path
         id="path4"
         d="m 1741.76,809.242 c -6.31,16.942 -15.29,31.543 -26.9,43.848 -11.63,12.285 -25.92,22.09 -42.86,29.394 -16.95,7.305 -36.06,10.977 -57.31,10.977 h -73.06 l -45.39,-45.391 -45.39,45.391 h -91.32 c -19.94,0 -38.37,-3.488 -55.33,-10.469 -16.93,-6.972 -31.57,-16.621 -43.84,-28.906 -12.31,-12.277 -21.78,-26.738 -28.4,-43.34 -6.66,-16.621 -9.97,-34.883 -9.97,-54.844 V 309.398 h 173.42 v 369.774 c 0,27.902 12.95,41.855 38.86,41.855 h 100.68 c 29.91,0 44.86,-14.617 44.86,-43.855 V 309.398 h 171.42 v 446.504 c 0,18.602 -3.16,36.387 -9.47,53.34"
         style="fill:#ed1c24;fill-opacity:1;fill-rule:nonzero;stroke:none"
         transform="matrix(0.13333333,0,0,-0.13333333,0,162.96)" />
      <path
         id="path5"
         d="m 3141.63,690.121 c 0,-15.293 8.29,-22.91 24.92,-22.91 h 133.55 c 17.93,0 26.92,7.305 26.92,21.941 v 15.93 c 0,14.609 -8.99,21.914 -26.92,21.914 h -133.55 c -16.63,0 -24.92,-7.305 -24.92,-21.914 z m 356.82,-3.965 c 0,-101.015 -43.54,-151.515 -130.57,-151.515 h -226.25 v -26.895 c 0,-21.269 10.61,-31.902 31.9,-31.902 h 301.98 V 309.398 h -366.78 c -93.03,0 -139.54,45.829 -139.54,137.528 v 309.98 c 0,91.692 46.51,137.551 139.54,137.551 h 256.14 c 87.71,0 132.24,-45.859 133.58,-137.551 v -70.75"
         style="fill:#ed1c24;fill-opacity:1;fill-rule:nonzero;stroke:none"
         transform="matrix(0.13333333,0,0,-0.13333333,0,162.96)" />
      <path
         id="path6"
         d="m 4899.52,446.926 c 0,-91.699 -41.2,-137.528 -123.6,-137.528 H 4380.24 V 481.84 h 348.86 v 39.844 h -221.27 c -91.07,0 -136.58,43.867 -136.58,131.57 v 103.652 c 0,91.028 45.2,136.555 135.55,136.555 h 378.76 V 726.996 h -342.87 v -44.824 h 233.23 c 82.4,0 123.6,-41.875 123.6,-125.606 v -109.64"
         style="fill:#ed1c24;fill-opacity:1;fill-rule:nonzero;stroke:none"
         transform="matrix(0.13333333,0,0,-0.13333333,0,162.96)" />
      <path
         id="path7"
         d="m 4316.23,809.242 c -6.32,16.942 -15.3,31.543 -26.89,43.848 -11.65,12.285 -25.93,22.09 -42.86,29.394 -16.95,7.305 -36.07,10.977 -57.31,10.977 h -207.25 l -45.39,-45.391 -45.38,45.391 h -215.3 c -19.96,0 -38.38,-3.488 -55.32,-10.469 -16.93,-6.972 -31.56,-16.621 -43.85,-28.906 -12.3,-12.277 -21.77,-26.738 -28.4,-43.34 -6.67,-16.621 -9.98,-34.883 -9.98,-54.844 V 309.398 h 173.43 v 369.774 c -1.34,27.902 11.62,41.855 38.88,41.855 h 95.68 V 309.398 h 171.44 v 411.629 h 91.7 c 28.54,-0.664 43.51,-15.281 44.84,-43.855 V 309.398 h 171.44 v 446.504 c 0,18.602 -3.17,36.387 -9.48,53.34"
         style="fill:#ed1c24;fill-opacity:1;fill-rule:nonzero;stroke:none"
         transform="matrix(0.13333333,0,0,-0.13333333,0,162.96)" />
      <path
         id="path8"
         d="M 542.973,539.449 673.336,846.406 803.695,539.449 Z M 1231.37,230.004 c -28.17,0 -53.49,16.758 -64.51,42.695 l -403.231,949.481 -90.293,-38.34 -90.297,38.34 -403.23,-949.481 c -11.016,-25.937 -36.34,-42.695 -64.512,-42.695 L 0,230.004 V 0 h 115.297 c 120.637,0 229.055,71.75 276.211,182.801 l 53.789,126.648 H 901.371 L 955.16,182.801 C 1002.31,71.75 1110.73,0 1231.37,0 H 4899.44 V 230.004 H 1231.37"
         style="fill:#ed1c24;fill-opacity:1;fill-rule:nonzero;stroke:none"
         transform="matrix(0.13333333,0,0,-0.13333333,0,162.96)" />
    </g>
  </g>
</svg>
